<?xml version="1.0" encoding="utf-8"?>
<!-- Generator: Adobe Illustrator 26.5.0, SVG Export Plug-In . SVG Version: 6.00 Build 0)  -->
<svg version="1.1" id="Layer_1" xmlns="http://www.w3.org/2000/svg" xmlns:xlink="http://www.w3.org/1999/xlink" x="0px" y="0px"
	 viewBox="0 0 1472.3 495.2" style="enable-background:new 0 0 1472.3 495.2;" xml:space="preserve">
<style type="text/css">
	.st0{fill:#FFFFFF;}
	.st1{fill:#00A8A1;}
	.st2{fill:#131313;}
	.st3{fill:#E1ECE9;}
	.st4{fill:#376958;}
</style>
<g>
	<rect x="174" y="17.1" class="st0" width="1279" height="314"/>
	<path id="Frame_00000065776406019692400620000009541551776704691334_" class="st1" d="M0,0v348.1h1469.9V0H0z M1453,331.1H33.8
		v-314H1453V331.1z"/>
	<g id="Green_Shape_00000001629706933463618510000010472976572287687829_">
		<polygon class="st1" points="0,0 0,348 174,348 174,182.4 135,182.4 135,247 115,247 115,101 135,101 135,162.6 174,162.6 174,0 
					"/>
	</g>
	<g id="H_symbol_White_and_Black_00000091716912172194839550000010013089531045481129_">
		<polygon class="st2" points="213,101 213,162.6 174,162.6 174,182.4 213,182.4 213,247 233,247 233,101 		"/>
		<polygon class="st0" points="135,101 135,162.6 174,162.6 174,182.5 135,182.5 135,247 115,247 115,101 		"/>
	</g>
	<g>
		<path class="st2" d="M293.9,189.5c0,5.2,1,10.1,2.9,14.7s4.7,8.7,8.1,12.1s7.4,6.2,12,8.1c4.6,2,9.5,2.9,14.6,2.9
			c5.2,0,10.1-1,14.6-2.9c4.6-2,8.6-4.7,12-8.1s6.1-7.5,8.1-12.1c1.9-4.6,2.9-9.6,2.9-14.7v-87.7H389v87.7c0,5.3-0.7,10.5-2,15.4
			c-1.4,4.9-3.3,9.5-5.8,13.8c-2.5,4.3-5.5,8.2-9,11.7c-3.5,3.5-7.4,6.5-11.7,9.1c-4.3,2.5-8.8,4.5-13.7,5.8
			c-4.9,1.4-10,2.1-15.3,2.1c-5.3,0-10.3-0.7-15.2-2.1c-4.9-1.4-9.4-3.3-13.7-5.8c-4.2-2.5-8.1-5.5-11.7-9.1
			c-3.5-3.5-6.5-7.4-9-11.7c-2.5-4.3-4.4-8.9-5.8-13.9c-1.4-4.9-2-10.1-2-15.4v-87.7h19.9V189.5z"/>
		<path class="st2" d="M432.2,245.7V101.8H452v124h61.7v19.9L432.2,245.7L432.2,245.7z"/>
		<path class="st2" d="M567.9,245.7h-19.8V101.8h19.8V245.7z M584.4,165.5l40-54.6c1.9-3,4.4-5.3,7.3-6.8c3-1.5,6.4-2.3,10.2-2.3
			h13.6l-49.1,67.1c-0.7,0.9-1.4,1.6-2,2.1c-0.6,0.4-1,0.7-1.1,0.7c0.1,0.1,0.5,0.4,1.1,0.8c0.6,0.4,1.3,1.1,2,2l52.4,71.2h-13.6
			c-3.8,0-7.2-0.7-10.2-2.3c-3-1.5-5.4-3.8-7.3-6.8L584.4,178c-0.9-1.1-1.7-2.1-2.5-2.8c-0.8-0.8-1.6-1.4-2.3-1.9s-1.3-0.8-1.8-1.1
			c-0.5-0.2-0.7-0.4-0.8-0.4c0,0,0.3-0.1,0.8-0.3c0.5-0.2,1.1-0.5,1.8-1c0.7-0.5,1.5-1.1,2.3-1.9
			C582.7,167.7,583.6,166.7,584.4,165.5z"/>
	</g>
	<polygon class="st2" points="668.6,245.1 685.6,245.1 727.5,101.8 710,101.8 	"/>
	<path class="st2" d="M1277.8,252.5l2.9-4.1l2.2-3l7-9.6l7-9.6l7.1-9.8l6.5-8.9l8-11l4.8-6.6l2.8-3.8l0.7-0.9c0,0,0.8-1,0.9-1.1
		c0,0,0.8-1,1.4-1.3c0,0,0.7-0.5,0.9-0.6c0,0-0.8-0.6-1-0.7c0,0-0.9-0.6-1.7-1.6c0,0-0.8-1-1.1-1.4l-51.6-70.7h0.3h0.6h9h4.1
		c0,0,2.7,0,4.5,0.4c0,0,1.7,0.3,3.2,0.9c0,0,1.2,0.4,1.7,0.7c0,0,1.4,0.7,1.7,0.9c0,0,1.3,0.8,1.8,1.3c0,0,1.5,1.3,1.8,1.6
		c0,0,1.9,2,2.8,3.6c0,0,3.6,4.9,4.1,5.7l5,6.9l5,6.8l4.5,6.2l4.6,6.3l4,5.4l5.2,7.1l6,8.3l4.6,6.3c0,0,2.2,3.1,4.7,4.6
		c0,0,1.2,0.8,2.6,1.5c0,0-1.9,0.6-3.6,2.1c0,0-1.9,1.6-3.2,3.4l-3.1,4.2l-2.9,3.9l-2.7,3.7l-3.3,4.5l-2.9,3.9l-3.3,4.5l-3.6,4.9
		l-3.6,4.9l-3.5,4.8l-3.8,5.3l-3.6,5l-3.7,5.2l-1.6,2.3c0,0-1.5,2-2.5,2.8c0,0-1.8,1.6-3.6,2.5c0,0-2.2,1.2-4.9,1.8
		c0,0-1.8,0.4-2.9,0.5c0,0-2.6,0.2-4.5,0.1L1277.8,252.5z"/>
	<g>
		<path class="st2" d="M841.6,221.2c2.2,0,3.8,0.5,4.7,1.5c0.9,1,1.4,2.7,1.4,5.2c0,2.5-0.5,4.2-1.4,5.2c-0.9,1-2.5,1.5-4.7,1.5
			h-6.2c-2,0-3.9-0.2-5.7-0.7c-1.8-0.5-3.5-1.3-4.9-2.3c-1.5-1-2.7-2.4-3.8-3.9c-1.1-1.6-1.8-3.4-2.3-5.6
			c-5.1,4.5-10.8,8.1-16.9,10.8c-6.2,2.7-12.8,4-20,4c-4.9,0-9.3-0.6-13.4-1.9s-7.6-3.2-10.6-5.6c-3-2.5-5.3-5.5-7-9
			s-2.5-7.6-2.5-12.2c0-5.5,1.1-10.2,3.2-14.1c2.1-3.9,5-7,8.6-9.4c3.6-2.4,7.8-4.1,12.6-5.3c4.8-1.1,9.8-1.7,15.1-1.7
			c5.3,0,10.4,0.4,15.3,1.3c4.9,0.8,9.7,2.1,14.3,3.7v-8.4c0-6.4-1.5-11.1-4.5-14c-3-3-8.2-4.5-15.5-4.5c-5.3,0-10.6,0.7-15.8,2.1
			c-5.3,1.4-10,3.6-14.1,6.6c-1.5,1.1-3,1.5-4.6,1.2c-1.6-0.3-3.1-1.5-4.5-3.5c-1.4-2-2-3.8-1.7-5.5c0.3-1.6,1.2-3,2.7-4.1
			c2.5-1.9,5.3-3.5,8.4-5c3.1-1.4,6.2-2.6,9.5-3.4c3.3-0.9,6.6-1.5,10-2c3.4-0.4,6.8-0.6,10.1-0.6c11.6,0,20.3,2.8,26.1,8.3
			c5.7,5.5,8.6,13.7,8.6,24.5v39.3c0,5.2,2.1,7.8,6.4,7.8L841.6,221.2L841.6,221.2z M817.2,195.8c-4.5-1.5-9.2-2.6-14.3-3.3
			c-5.1-0.7-10.1-1.1-15.2-1.1c-3.5,0-6.7,0.3-9.7,0.9c-3,0.6-5.5,1.5-7.6,2.8c-2.1,1.3-3.8,3-5,5s-1.8,4.6-1.8,7.5
			c0,4.8,1.7,8.5,4.9,11.2c3.3,2.7,7.9,4,13.8,4c7,0,13.3-1.5,19.1-4.4c5.8-2.9,11.1-6.9,15.9-11.9V195.8z"/>
		<path class="st2" d="M885.2,156.9h-8c-2.2,0-3.8-0.5-4.7-1.5c-0.9-1-1.4-2.7-1.4-5.2s0.5-4.2,1.4-5.2c0.9-1,2.5-1.5,4.7-1.5h15.5
			c2.2,0,3.8,0.5,4.7,1.5c0.9,1,1.4,2.7,1.4,5.2v7.9c4-5.3,8.7-9.5,14.1-12.4c5.4-2.9,11.3-4.4,17.8-4.4c6,0,11.6,1,16.7,3.1
			c5.1,2.1,9.6,5,13.3,8.9c3.7,3.9,6.7,8.6,8.8,14.2s3.2,11.9,3.2,19c0,7.1-1.1,13.4-3.2,19c-2.1,5.6-5.1,10.3-8.8,14.2
			c-3.7,3.9-8.2,6.8-13.3,8.9c-5.1,2.1-10.7,3.1-16.7,3.1c-6.5,0-12.3-1.3-17.4-4c-5.1-2.7-9.6-6.5-13.5-11.4v43.5h21.6
			c2.2,0,3.8,0.5,4.7,1.5s1.4,2.7,1.4,5.2s-0.5,4.2-1.4,5.2c-0.9,1-2.5,1.5-4.7,1.5h-47.1c-2.2,0-3.8-0.5-4.7-1.5
			c-0.9-1-1.4-2.7-1.4-5.2s0.5-4.2,1.4-5.2s2.5-1.5,4.7-1.5h10.9L885.2,156.9L885.2,156.9z M899.8,186.6c0,4.9,0.7,9.2,2.2,13
			c1.5,3.8,3.6,7,6.2,9.6c2.7,2.6,5.8,4.6,9.5,6c3.6,1.4,7.6,2.1,11.9,2.1c4.4,0,8.3-0.7,11.8-2.3c3.5-1.5,6.3-3.6,8.7-6.4
			c2.3-2.7,4.1-6,5.4-9.7c1.2-3.7,1.8-7.8,1.8-12.3s-0.6-8.6-1.8-12.3c-1.2-3.7-3-7-5.4-9.7c-2.3-2.7-5.2-4.8-8.7-6.4
			c-3.5-1.5-7.3-2.3-11.8-2.3c-4.3,0-8.3,0.7-11.9,2.1c-3.6,1.4-6.8,3.3-9.5,6c-2.7,2.6-4.7,5.8-6.2,9.6
			C900.6,177.4,899.8,181.7,899.8,186.6z"/>
		<path class="st2" d="M1015.8,156.9h-8c-2.2,0-3.8-0.5-4.7-1.5c-0.9-1-1.4-2.7-1.4-5.2s0.5-4.2,1.4-5.2c0.9-1,2.5-1.5,4.7-1.5h15.5
			c2.2,0,3.8,0.5,4.7,1.5c0.9,1,1.4,2.7,1.4,5.2v7.9c4-5.3,8.7-9.5,14.1-12.4c5.4-2.9,11.3-4.4,17.8-4.4c6,0,11.6,1,16.7,3.1
			c5.1,2.1,9.6,5,13.3,8.9c3.7,3.9,6.7,8.6,8.8,14.2s3.2,11.9,3.2,19c0,7.1-1.1,13.4-3.2,19c-2.1,5.6-5.1,10.3-8.8,14.2
			c-3.7,3.9-8.2,6.8-13.3,8.9c-5.1,2.1-10.7,3.1-16.7,3.1c-6.5,0-12.3-1.3-17.4-4c-5.1-2.7-9.6-6.5-13.5-11.4v43.5h21.6
			c2.2,0,3.8,0.5,4.7,1.5c0.9,1,1.4,2.7,1.4,5.2s-0.5,4.2-1.4,5.2c-0.9,1-2.5,1.5-4.7,1.5h-47.1c-2.2,0-3.8-0.5-4.7-1.5
			c-0.9-1-1.4-2.7-1.4-5.2s0.5-4.2,1.4-5.2c0.9-1,2.5-1.5,4.7-1.5h10.9L1015.8,156.9L1015.8,156.9z M1030.4,186.6
			c0,4.9,0.7,9.2,2.2,13c1.5,3.8,3.6,7,6.2,9.6s5.8,4.6,9.5,6c3.6,1.4,7.6,2.1,11.9,2.1c4.4,0,8.3-0.7,11.8-2.3
			c3.5-1.5,6.3-3.6,8.7-6.4c2.3-2.7,4.1-6,5.4-9.7c1.2-3.7,1.8-7.8,1.8-12.3s-0.6-8.6-1.8-12.3c-1.2-3.7-3-7-5.4-9.7
			c-2.3-2.7-5.2-4.8-8.7-6.4c-3.5-1.5-7.3-2.3-11.8-2.3c-4.3,0-8.3,0.7-11.9,2.1c-3.6,1.4-6.8,3.3-9.5,6c-2.7,2.6-4.7,5.8-6.2,9.6
			C1031.1,177.4,1030.4,181.7,1030.4,186.6z"/>
		<path class="st2" d="M1158.8,230.4c0,2.3-0.5,3.9-1.6,4.9c-1.1,1-3,1.5-5.7,1.5s-4.6-0.5-5.7-1.5c-1.1-1-1.6-2.6-1.6-4.9v-23.6
			c0-2.3,0.5-3.9,1.6-4.9c1.1-1,3-1.5,5.7-1.5c1.4,0,2.5,0.3,3.3,1s1.4,1.7,1.9,3.1c2.4,6.4,6.3,11,11.8,13.8
			c5.4,2.9,12.7,4.3,21.7,4.3c7.8,0,13.6-1.4,17.5-4.2c3.9-2.8,5.8-6.5,5.8-11c0-2.4-0.7-4.2-2.2-5.7c-1.5-1.4-3.5-2.6-6-3.4
			c-2.9-1-6.2-1.7-9.9-2.2s-7.7-0.9-11.9-1.4s-8.3-1-12.4-1.8c-4.1-0.7-7.9-1.8-11.4-3.2c-2.2-0.8-4.2-1.9-6-3.2
			c-1.8-1.2-3.4-2.7-4.7-4.4c-1.3-1.7-2.4-3.7-3.1-5.9c-0.7-2.2-1.1-4.8-1.1-7.7c0-4.4,0.9-8.3,2.6-11.7c1.8-3.4,4.2-6.2,7.2-8.5
			c3.1-2.3,6.7-4,10.9-5.2c4.2-1.2,8.8-1.8,13.7-1.8c6.5,0,12.3,1,17.5,2.9c5.2,1.9,9.6,4.6,13.3,7.9v-4.4c0-2.3,0.5-3.9,1.6-4.9
			c1.1-1,3-1.5,5.7-1.5s4.6,0.5,5.7,1.5c1.1,1,1.6,2.6,1.6,4.9v18.7c0,2.3-0.5,3.9-1.6,4.9c-1.1,1-3,1.5-5.7,1.5
			c-2.2,0-3.7-0.8-4.7-2.6c-1.5-2.8-3.3-5.2-5.4-7.1c-2.1-1.9-4.5-3.4-7.3-4.5c-2.8-1.1-5.8-1.9-9.1-2.4c-3.3-0.4-6.9-0.7-10.6-0.7
			c-6.3,0-11.2,1.1-14.7,3.3c-3.6,2.2-5.3,5.4-5.3,9.6c0,2.2,0.7,3.9,2.1,5.2c1.4,1.3,3.3,2.4,5.8,3.2c2.7,0.9,5.9,1.6,9.5,2
			s7.4,0.8,11.5,1.3s8.1,0.9,12.2,1.6s7.9,1.6,11.4,2.9c2.4,0.9,4.6,2,6.6,3.3c2,1.3,3.7,2.8,5.2,4.6c1.5,1.8,2.6,3.9,3.4,6.3
			c0.8,2.4,1.2,5.2,1.2,8.3c0,4.4-0.8,8.4-2.5,12c-1.7,3.6-4.1,6.7-7.3,9.3c-3.2,2.6-7.2,4.6-11.9,6c-4.7,1.4-10.1,2.1-16.1,2.1
			c-7.1,0-13.3-1-18.5-3c-5.3-2-9.9-5-13.9-9V230.4z"/>
	</g>
	<path class="st3" d="M1404.9,495.2c37.2,0,67.4-30,67.4-67.1s-30.2-67.1-67.4-67.1c-37.2,0-67.4,30-67.4,67.1
		S1367.6,495.2,1404.9,495.2z"/>
	<path class="st4" d="M1390.9,395.9c-5.5,5.5-8.7,12.8-9,20.5c-0.3,7.7,2.2,15.3,7.2,21.2l31.7-31.5l12-11.9
		c-5.9-5-13.5-7.5-21.3-7.2C1403.7,387.3,1396.4,390.5,1390.9,395.9L1390.9,395.9z"/>
	<path class="st4" d="M1389,445.3l-12,11.9c5.9,5,13.5,7.5,21.3,7.2c7.8-0.3,15.1-3.5,20.6-9c5.5-5.5,8.7-12.8,9.1-20.5
		c0.3-7.7-2.2-15.3-7.2-21.2L1389,445.3z"/>
	<path class="st2" d="M851.3,404.8c0-3.7,1-6.9,2.9-9.8c1.9-2.8,4.5-5,7.9-6.6c3.4-1.6,7.3-2.4,11.8-2.4c4.3,0,8,0.7,11.1,2.2
		c3.2,1.5,5.6,3.6,7.4,6.4c1.8,2.8,2.7,6,2.9,9.8H884c-0.1-2.7-1.1-4.8-2.9-6.3c-1.9-1.6-4.3-2.3-7.5-2.3c-3.4,0-6.2,0.8-8.2,2.3
		c-2,1.5-3,3.6-3,6.2c0,2.2,0.6,4,1.8,5.4c1.3,1.3,3.2,2.2,5.9,2.8l10,2.2c5.4,1.2,9.5,3.1,12.1,6c2.7,2.8,4,6.5,4,11.2
		c0,3.9-1,7.3-2.9,10.2c-1.9,2.9-4.6,5.2-8.2,6.8c-3.5,1.6-7.5,2.3-12.2,2.3c-4.5,0-8.4-0.7-11.7-2.2c-3.4-1.6-6-3.7-7.9-6.5
		c-1.8-2.8-2.8-6-2.9-9.8h11.1c0.1,2.6,1.1,4.7,3.1,6.3c2.1,1.5,4.9,2.2,8.4,2.2c3.7,0,6.6-0.7,8.8-2.2c2.2-1.6,3.3-3.6,3.3-6.1
		c0-2.2-0.6-3.9-1.7-5.2c-1.2-1.3-3-2.2-5.6-2.8l-10.1-2.2c-5.4-1.2-9.5-3.2-12.2-6.2C852.7,413.7,851.3,409.7,851.3,404.8z
		 M915.2,450.3h-10.6v-64.2h10.7v27.1c1.3-2.1,3.2-3.7,5.5-4.9c2.4-1.3,5.2-1.9,8.3-1.9c5.3,0,9.2,1.6,12,4.7
		c2.8,3.2,4.2,7.5,4.2,13v26.2h-10.6v-23.7c0-2.4-0.4-4.4-1.1-6c-0.8-1.6-1.8-2.7-3.1-3.5c-1.3-0.8-2.9-1.2-4.7-1.2
		c-2.2,0-4.1,0.5-5.7,1.5c-1.6,0.9-2.8,2.2-3.6,3.9c-0.8,1.7-1.2,3.6-1.2,5.7V450.3z M953.2,428.9c0-4.4,1-8.3,2.9-11.7
		c2-3.4,4.7-6,8.2-7.9c3.5-1.9,7.4-2.8,11.8-2.8c4.5,0,8.4,0.9,11.8,2.8c3.5,1.9,6.2,4.5,8.2,7.9c2,3.3,2.9,7.2,2.9,11.7
		c0,4.4-1,8.3-2.9,11.7c-2,3.3-4.7,6-8.2,7.9c-3.4,1.9-7.3,2.8-11.8,2.8c-4.4,0-8.3-0.9-11.8-2.8c-3.5-1.9-6.2-4.5-8.2-7.9
		C954.2,437.2,953.2,433.3,953.2,428.9z M963.8,428.9c0,2.6,0.5,4.9,1.6,6.8c1.1,2,2.5,3.5,4.3,4.6c1.9,1.1,4,1.6,6.4,1.6
		c2.4,0,4.6-0.5,6.4-1.6c1.8-1.1,3.3-2.6,4.3-4.6c1-2,1.6-4.2,1.6-6.8c0-2.6-0.5-4.9-1.6-6.8c-1-2-2.5-3.5-4.3-4.6
		c-1.9-1.1-4-1.6-6.4-1.6c-2.4,0-4.6,0.5-6.4,1.6c-1.8,1.1-3.2,2.6-4.3,4.6C964.3,424,963.8,426.2,963.8,428.9z M1007.4,470.1v-62.4
		h9.8l0.7,6.5c1.3-2.5,3.2-4.4,5.9-5.7c2.7-1.4,5.6-2.1,8.8-2.1c4.1,0,7.6,0.9,10.6,2.8c3,1.8,5.4,4.4,7,7.7
		c1.7,3.3,2.5,7.2,2.5,11.7c0,4.4-0.8,8.4-2.3,11.8s-3.8,6.2-6.9,8.2c-2.9,2-6.6,2.9-10.8,2.9c-3.2,0-6.1-0.6-8.8-1.8
		c-2.6-1.2-4.6-2.9-5.9-5v25.5H1007.4z M1018.1,429c0,2.5,0.5,4.8,1.5,6.7c1,2,2.4,3.5,4.2,4.7c1.9,1.1,4,1.6,6.4,1.6
		c2.5,0,4.6-0.5,6.4-1.6c1.8-1.2,3.2-2.7,4.1-4.7c0.9-2,1.4-4.2,1.4-6.7c0-2.5-0.5-4.8-1.4-6.7s-2.3-3.5-4.1-4.6
		c-1.8-1.2-3.9-1.7-6.4-1.7c-2.4,0-4.6,0.5-6.4,1.6c-1.8,1.1-3.2,2.6-4.2,4.6C1018.6,424.1,1018.1,426.4,1018.1,429z M1112.8,451.3
		c-6.2,0-11.6-1.3-16.1-4c-4.5-2.7-8-6.5-10.6-11.3c-2.5-4.9-3.7-10.6-3.7-17.3c0-6.6,1.3-12.3,3.8-17.2c2.6-4.9,6.2-8.7,10.9-11.4
		c4.7-2.7,10.1-4.1,16.2-4.1c5,0,9.5,0.9,13.5,2.8c4,1.8,7.3,4.4,9.9,7.8c2.6,3.3,4.2,7.2,4.9,11.7H1130c-1.1-3.7-3.2-6.5-6.2-8.5
		c-2.9-2.1-6.6-3.1-10.8-3.1c-3.8,0-7.2,0.9-10.1,2.7c-2.8,1.8-5,4.3-6.6,7.6c-1.6,3.3-2.3,7.2-2.3,11.7c0,4.4,0.8,8.2,2.3,11.6
		c1.6,3.3,3.8,5.8,6.6,7.7c2.9,1.8,6.2,2.7,10.1,2.7c4.3,0,8-1,11.1-3.1c3.1-2.1,5.2-4.9,6.2-8.4h11.5c-0.8,4.4-2.6,8.2-5.3,11.6
		c-2.7,3.3-6,5.9-10.1,7.8C1122.4,450.4,1117.8,451.3,1112.8,451.3z M1150.3,450.3v-42.7h10.6v42.7H1150.3z M1155.5,399.1
		c-1.8,0-3.3-0.6-4.6-1.8c-1.2-1.3-1.8-2.8-1.8-4.6c0-1.8,0.6-3.3,1.8-4.5c1.3-1.2,2.8-1.8,4.6-1.8c1.8,0,3.3,0.6,4.5,1.8
		c1.3,1.2,1.9,2.7,1.9,4.5c0,1.8-0.6,3.3-1.9,4.6C1158.8,398.5,1157.3,399.1,1155.5,399.1z M1198.7,407.5v9.8h-3.9
		c-3.9,0-6.9,1-9.1,3.1c-2.2,2-3.3,5.1-3.3,9.2v20.7h-10.6v-42.6h10l0.9,8.8h-1c0.6-2.8,1.9-5.1,4.1-6.9c2.1-1.8,4.9-2.7,8.3-2.7
		c0.8,0,1.5,0,2.3,0.1C1197,407.1,1197.8,407.2,1198.7,407.5z M1201.9,428.9c0-4.4,0.9-8.3,2.7-11.7c1.9-3.4,4.4-6,7.5-7.9
		c3.2-2,7-2.9,11.2-2.9c5.8,0,10.6,1.5,14.3,4.6c3.8,3,5.9,7.1,6.5,12.2h-10.6c-0.6-2.4-1.8-4.2-3.6-5.4c-1.7-1.3-3.8-1.9-6.3-1.9
		c-2.2,0-4.2,0.5-5.9,1.6c-1.7,1-3,2.5-3.9,4.5c-0.9,2-1.4,4.3-1.4,7c0,2.7,0.4,5,1.3,7c0.9,2,2.1,3.5,3.7,4.6
		c1.7,1,3.6,1.6,5.9,1.6c2.7,0,4.9-0.6,6.6-1.9c1.8-1.3,3-3.1,3.6-5.4h10.7c-0.5,3.3-1.7,6.3-3.6,8.8c-1.9,2.5-4.3,4.4-7.2,5.9
		c-3,1.4-6.3,2.1-10.1,2.1c-4.3,0-8.1-0.9-11.4-2.8c-3.2-1.9-5.7-4.5-7.5-7.9C1202.7,437.4,1201.9,433.4,1201.9,428.9z
		 M1262.7,450.3h-10.5v-64.2h10.5V450.3z M1293,451.4c-4.2,0-8-1-11.3-2.8c-3.2-2-5.8-4.6-7.6-7.9c-1.8-3.4-2.8-7.3-2.8-11.7
		c0-4.4,0.9-8.3,2.7-11.7c1.8-3.4,4.3-6,7.5-7.9c3.2-2,6.9-2.9,11.1-2.9c4.3,0,8.1,0.9,11.2,2.8c3.1,1.8,5.5,4.3,7.2,7.5
		c1.7,3.2,2.6,7.1,2.6,11.6v3.2l-36.8,0.1l0.2-6.7h26.1c0-2.9-1-5.3-2.9-7.1c-1.8-1.8-4.4-2.7-7.5-2.7c-2.5,0-4.6,0.5-6.3,1.6
		c-1.7,1-2.9,2.6-3.8,4.7c-0.9,2.1-1.3,4.6-1.3,7.6c0,4.6,1,8.1,3,10.4c2,2.4,5,3.5,8.9,3.5c2.9,0,5.3-0.5,7.1-1.6
		c1.9-1.1,3.2-2.6,3.7-4.7h9.8c-0.9,4.7-3.2,8.3-6.9,11C1303.2,450.1,1298.6,451.4,1293,451.4z"/>
	<path class="st2" d="M357.3,442.1v-52.8h22.9c4.7,0,8.8,0.8,12.2,2.3c3.4,1.5,6.1,3.7,7.9,6.6c1.9,2.9,2.8,6.3,2.8,10.3
		c0,3.9-0.9,7.3-2.8,10.2c-1.9,2.9-4.5,5.1-7.9,6.6c-3.4,1.5-7.5,2.3-12.2,2.3h-16.1l5.4-5.5v20.1H357.3z M369.5,423.4l-5.4-5.8
		h15.4c3.8,0,6.6-0.8,8.5-2.4c1.9-1.6,2.8-3.9,2.8-6.7c0-2.9-0.9-5.2-2.8-6.8s-4.7-2.4-8.5-2.4h-15.4l5.4-5.8V423.4z M430.2,442.7
		c-4.3,0-8.2-0.9-11.6-2.7c-3.3-1.8-6-4.3-7.9-7.4c-1.9-3.2-2.9-6.8-2.9-10.8c0-4.1,1-7.7,2.9-10.8c2-3.2,4.6-5.6,7.9-7.4
		c3.4-1.8,7.2-2.7,11.6-2.7c4.3,0,8.1,0.9,11.5,2.7c3.4,1.8,6,4.2,7.9,7.3c1.9,3.1,2.9,6.7,2.9,10.9c0,4-1,7.6-2.9,10.8
		c-1.9,3.1-4.6,5.6-7.9,7.4C438.4,441.8,434.5,442.7,430.2,442.7z M430.2,433c2,0,3.7-0.5,5.3-1.4c1.6-0.9,2.8-2.2,3.7-3.9
		c0.9-1.7,1.4-3.7,1.4-6c0-2.4-0.5-4.4-1.4-6c-0.9-1.7-2.1-2.9-3.7-3.9c-1.6-0.9-3.3-1.4-5.3-1.4c-2,0-3.7,0.5-5.3,1.4
		s-2.8,2.2-3.8,3.9c-0.9,1.7-1.4,3.7-1.4,6c0,2.3,0.5,4.3,1.4,6c1,1.7,2.2,2.9,3.8,3.9C426.5,432.6,428.3,433,430.2,433z
		 M468.6,442.1l-14.6-40.6H465l12.2,35h-5.3l12.7-35h10l12.3,35h-5.3l12.5-35h10.4l-14.7,40.6h-11.4l-10.8-30h3.5l-11.2,30H468.6z
		 M549,442.7c-4.6,0-8.7-0.9-12.2-2.7c-3.5-1.8-6.2-4.3-8.1-7.4c-1.9-3.2-2.9-6.8-2.9-10.8c0-4.1,0.9-7.7,2.8-10.8
		c1.9-3.2,4.5-5.6,7.8-7.4c3.3-1.8,7-2.7,11.1-2.7c4,0,7.5,0.9,10.7,2.6c3.2,1.7,5.8,4.1,7.6,7.2c1.9,3.1,2.8,6.9,2.8,11.2
		c0,0.5,0,1-0.1,1.6c-0.1,0.6-0.1,1.1-0.2,1.6h-33v-6.9h26.8l-4.5,2c0-2.1-0.4-4-1.3-5.5c-0.9-1.6-2-2.8-3.5-3.6
		c-1.5-0.9-3.3-1.4-5.3-1.4c-2,0-3.8,0.5-5.4,1.4c-1.5,0.9-2.7,2.1-3.5,3.7c-0.9,1.6-1.3,3.4-1.3,5.6v1.8c0,2.2,0.5,4.2,1.4,5.9
		c1,1.7,2.4,2.9,4.2,3.9c1.8,0.9,3.9,1.3,6.3,1.3c2.2,0,4.1-0.3,5.7-1c1.7-0.7,3.2-1.6,4.5-2.9l6.3,6.8c-1.9,2.1-4.2,3.7-7,4.9
		C556,442.1,552.7,442.7,549,442.7z M576.5,442.1v-40.6h11.2v11.5l-1.6-3.3c1.2-2.9,3.1-5,5.8-6.5c2.7-1.5,5.9-2.3,9.7-2.3v10.9
		c-0.5-0.1-1-0.1-1.4-0.1c-0.4-0.1-0.8-0.1-1.3-0.1c-3.2,0-5.8,0.9-7.9,2.8c-2,1.8-2.9,4.7-2.9,8.5v19.2H576.5z M628.6,442.7
		c-4.6,0-8.7-0.9-12.2-2.7c-3.5-1.8-6.2-4.3-8.1-7.4c-1.9-3.2-2.9-6.8-2.9-10.8c0-4.1,0.9-7.7,2.8-10.8c1.9-3.2,4.5-5.6,7.8-7.4
		c3.3-1.8,7-2.7,11.1-2.7c4,0,7.5,0.9,10.7,2.6c3.2,1.7,5.8,4.1,7.6,7.2c1.9,3.1,2.8,6.9,2.8,11.2c0,0.5,0,1-0.1,1.6
		c-0.1,0.6-0.1,1.1-0.2,1.6h-33v-6.9h26.8l-4.5,2c0-2.1-0.4-4-1.3-5.5c-0.9-1.6-2-2.8-3.5-3.6c-1.5-0.9-3.3-1.4-5.3-1.4
		s-3.8,0.5-5.4,1.4c-1.5,0.9-2.7,2.1-3.5,3.7c-0.9,1.6-1.3,3.4-1.3,5.6v1.8c0,2.2,0.5,4.2,1.4,5.9c1,1.7,2.4,2.9,4.2,3.9
		c1.8,0.9,3.9,1.3,6.3,1.3c2.2,0,4.1-0.3,5.7-1c1.7-0.7,3.2-1.6,4.5-2.9l6.3,6.8c-1.9,2.1-4.2,3.7-7,4.9
		C635.5,442.1,632.3,442.7,628.6,442.7z M673.5,442.7c-3.8,0-7.3-0.9-10.3-2.6c-3.1-1.8-5.5-4.2-7.3-7.3c-1.8-3.1-2.6-6.8-2.6-11
		c0-4.3,0.9-8,2.6-11.1c1.8-3.1,4.3-5.5,7.3-7.2c3.1-1.7,6.5-2.6,10.3-2.6c3.4,0,6.4,0.8,9,2.3c2.6,1.5,4.6,3.8,6,6.9
		c1.4,3.1,2.1,7,2.1,11.8c0,4.7-0.7,8.7-2,11.8c-1.4,3.1-3.3,5.4-5.9,6.9C680.1,441.9,677.1,442.7,673.5,442.7z M675.5,433
		c1.9,0,3.6-0.5,5.2-1.4c1.6-0.9,2.8-2.2,3.7-3.9c1-1.7,1.4-3.7,1.4-6c0-2.4-0.5-4.4-1.4-6c-0.9-1.7-2.1-2.9-3.7-3.9
		s-3.3-1.4-5.2-1.4c-2,0-3.7,0.5-5.3,1.4s-2.8,2.2-3.8,3.9c-0.9,1.7-1.4,3.7-1.4,6c0,2.3,0.5,4.3,1.4,6c1,1.7,2.2,2.9,3.8,3.9
		C671.8,432.6,673.6,433,675.5,433z M686.2,442.1v-8.3l0.2-12.1l-0.8-12v-23.6h11.8v56H686.2z M753.7,442.7c-3.6,0-6.6-0.8-9.2-2.3
		c-2.6-1.5-4.5-3.8-5.9-6.9c-1.4-3.1-2-7-2-11.8c0-4.8,0.7-8.7,2.1-11.8c1.5-3.1,3.5-5.4,6-6.9c2.6-1.5,5.6-2.3,9-2.3
		c3.8,0,7.2,0.9,10.3,2.6c3.1,1.7,5.5,4.1,7.2,7.2c1.8,3.1,2.7,6.8,2.7,11.1c0,4.2-0.9,7.9-2.7,11c-1.8,3.1-4.2,5.6-7.2,7.3
		C761,441.8,757.5,442.7,753.7,442.7z M729.7,442.1v-56h11.8v23.6l-0.8,12l0.2,12.1v8.3H729.7z M751.7,433c2,0,3.7-0.5,5.2-1.4
		c1.6-0.9,2.8-2.2,3.7-3.9c1-1.7,1.4-3.7,1.4-6c0-2.4-0.5-4.4-1.4-6c-0.9-1.7-2.1-2.9-3.7-3.9c-1.5-0.9-3.2-1.4-5.2-1.4
		s-3.7,0.5-5.3,1.4s-2.8,2.2-3.7,3.9c-0.9,1.7-1.4,3.7-1.4,6c0,2.3,0.5,4.3,1.4,6c0.9,1.7,2.1,2.9,3.7,3.9
		C748,432.6,749.7,433,751.7,433z M785.9,457.3c-2.1,0-4.2-0.3-6.3-1c-2.1-0.7-3.7-1.6-5.1-2.7l4.3-8.4c0.9,0.8,1.9,1.4,3.1,1.9
		c1.2,0.5,2.4,0.7,3.5,0.7c1.7,0,3-0.4,3.9-1.2c1-0.8,1.9-2,2.7-3.9l2.1-5l0.9-1.3l14.6-35H821l-18.3,43.1c-1.3,3.3-2.8,5.8-4.5,7.7
		c-1.7,1.9-3.5,3.2-5.6,3.9C790.6,457,788.3,457.3,785.9,457.3z M792.8,443.7l-18.1-42.2h12.2l14,34L792.8,443.7z"/>
</g>
</svg>
